<svg width="61" height="61" viewBox="0 0 61 61" fill="none" xmlns="http://www.w3.org/2000/svg">
<path d="M30.5 6.12488C17.0598 6.12488 6.125 17.0596 6.125 30.4999C6.125 43.9401 17.0598 54.8749 30.5 54.8749C43.9402 54.8749 54.875 43.9401 54.875 30.4999C54.875 17.0596 43.9402 6.12488 30.5 6.12488ZM39.875 32.3749H32.375V39.8749C32.375 40.3722 32.1775 40.8491 31.8258 41.2007C31.4742 41.5523 30.9973 41.7499 30.5 41.7499C30.0027 41.7499 29.5258 41.5523 29.1742 41.2007C28.8225 40.8491 28.625 40.3722 28.625 39.8749V32.3749H21.125C20.6277 32.3749 20.1508 32.1773 19.7992 31.8257C19.4475 31.4741 19.25 30.9972 19.25 30.4999C19.25 30.0026 19.4475 29.5257 19.7992 29.1741C20.1508 28.8224 20.6277 28.6249 21.125 28.6249H28.625V21.1249C28.625 20.6276 28.8225 20.1507 29.1742 19.7991C29.5258 19.4474 30.0027 19.2499 30.5 19.2499C30.9973 19.2499 31.4742 19.4474 31.8258 19.7991C32.1775 20.1507 32.375 20.6276 32.375 21.1249V28.6249H39.875C40.3723 28.6249 40.8492 28.8224 41.2008 29.1741C41.5525 29.5257 41.75 30.0026 41.75 30.4999C41.75 30.9972 41.5525 31.4741 41.2008 31.8257C40.8492 32.1773 40.3723 32.3749 39.875 32.3749Z" fill="#F48B0C"/>
</svg>
