<svg width="23" height="23" viewBox="0 0 23 23" fill="none" xmlns="http://www.w3.org/2000/svg">
<g clip-path="url(#clip0_16_143)">
<path d="M17.9044 0.801636H8.27942C7.66972 0.802139 7.07742 1.00489 6.59532 1.37813C6.11322 1.75137 5.76856 2.274 5.61536 2.86414H15.4122C16.2555 2.86414 17.0643 3.19914 17.6606 3.79544C18.2569 4.39175 18.5919 5.20052 18.5919 6.04382V19.1446L19.5372 19.9008C19.6544 19.9946 19.7991 20.0475 19.9491 20.0514C20.0992 20.0553 20.2464 20.0099 20.3682 19.9223C20.4583 19.8558 20.5312 19.7688 20.581 19.6685C20.6307 19.5683 20.6559 19.4576 20.6544 19.3457V3.55164C20.6544 2.82229 20.3647 2.12282 19.849 1.60709C19.3332 1.09137 18.6338 0.801636 17.9044 0.801636V0.801636Z" fill="#46474B"/>
<path d="M14.4669 4.23914H5.52938C4.80003 4.23914 4.10056 4.52887 3.58483 5.04459C3.06911 5.56032 2.77938 6.25979 2.77938 6.98914V22.0978C2.77768 22.2093 2.80251 22.3195 2.85182 22.4195C2.90113 22.5194 2.97351 22.6062 3.06297 22.6727C3.18726 22.763 3.33819 22.809 3.49169 22.8035C3.64519 22.798 3.79242 22.7412 3.90989 22.6422L9.99813 17.513L16.0864 22.6401C16.2031 22.7384 16.3492 22.7951 16.5017 22.8012C16.6541 22.8074 16.8043 22.7626 16.9286 22.674C17.0191 22.6077 17.0926 22.5207 17.1427 22.4202C17.1929 22.3198 17.2183 22.2088 17.2169 22.0965V6.98914C17.2169 6.25979 16.9271 5.56032 16.4114 5.04459C15.8957 4.52887 15.1962 4.23914 14.4669 4.23914Z" fill="#46474B"/>
</g>
<defs>
<clipPath id="clip0_16_143">
<rect width="22" height="22" fill="white" transform="translate(0.716919 0.801636)"/>
</clipPath>
</defs>
</svg>
