<svg width="23" height="23" viewBox="0 0 23 23" fill="none" xmlns="http://www.w3.org/2000/svg">
<g clip-path="url(#clip0_16_110)">
<path d="M22.0294 8.36414C22.0286 7.63503 21.7386 6.93602 21.2231 6.42047C20.7075 5.90492 20.0085 5.61493 19.2794 5.61414H17.2169V4.92664C17.2164 4.3798 16.9989 3.85553 16.6122 3.46886C16.2255 3.08219 15.7013 2.8647 15.1544 2.86414H8.27942C7.73258 2.8647 7.20831 3.08219 6.82164 3.46886C6.43497 3.85553 6.21749 4.3798 6.21692 4.92664V5.61414H4.15442C3.42532 5.61493 2.72631 5.90492 2.21075 6.42047C1.6952 6.93602 1.40522 7.63503 1.40442 8.36414V10.4266H22.0294V8.36414ZM15.8419 5.61414H7.59192V4.92664C7.59192 4.7443 7.66435 4.56943 7.79328 4.4405C7.92221 4.31157 8.09708 4.23914 8.27942 4.23914H15.1544C15.3368 4.23914 15.5116 4.31157 15.6406 4.4405C15.7695 4.56943 15.8419 4.7443 15.8419 4.92664V5.61414ZM15.1544 12.1454C15.1544 12.4189 15.0458 12.6812 14.8524 12.8746C14.659 13.068 14.3967 13.1766 14.1232 13.1766H9.31067C9.03716 13.1766 8.77486 13.068 8.58146 12.8746C8.38807 12.6812 8.27942 12.4189 8.27942 12.1454V11.9735C8.27942 11.9279 8.26131 11.8842 8.22908 11.852C8.19685 11.8197 8.15313 11.8016 8.10754 11.8016H1.40442V17.9891C1.40442 18.7185 1.69415 19.418 2.20988 19.9337C2.7256 20.4494 3.42507 20.7391 4.15442 20.7391H19.2794C20.0088 20.7391 20.7082 20.4494 21.224 19.9337C21.7397 19.418 22.0294 18.7185 22.0294 17.9891V11.8016H15.3263C15.2807 11.8016 15.237 11.8197 15.2048 11.852C15.1725 11.8842 15.1544 11.9279 15.1544 11.9735V12.1454Z" fill="#46474B"/>
</g>
<defs>
<clipPath id="clip0_16_110">
<rect width="22" height="22" fill="white" transform="translate(0.716919 0.801636)"/>
</clipPath>
</defs>
</svg>
