<svg width="23" height="23" viewBox="0 0 23 23" fill="none" xmlns="http://www.w3.org/2000/svg">
<path d="M21.3419 6.3017C21.3419 5.57235 21.0522 4.87288 20.5365 4.35715C20.0207 3.84143 19.3213 3.55169 18.5919 3.55169H17.9044V2.88353C17.9044 2.51357 17.62 2.19603 17.25 2.17755C17.157 2.17308 17.0642 2.18752 16.9769 2.22C16.8897 2.25249 16.81 2.30234 16.7426 2.36654C16.6753 2.43074 16.6216 2.50795 16.585 2.59349C16.5483 2.67904 16.5294 2.77113 16.5294 2.8642V3.55169H6.90442V2.88353C6.90442 2.51357 6.61997 2.19603 6.25001 2.17755C6.15705 2.17308 6.06415 2.18752 5.97694 2.22C5.88973 2.25249 5.81002 2.30234 5.74265 2.36654C5.67527 2.43074 5.62163 2.50795 5.58498 2.59349C5.54833 2.67904 5.52943 2.77113 5.52942 2.8642V3.55169H4.84192C4.11257 3.55169 3.4131 3.84143 2.89738 4.35715C2.38165 4.87288 2.09192 5.57235 2.09192 6.3017V6.81732C2.09192 6.8629 2.11003 6.90662 2.14226 6.93885C2.17449 6.97109 2.21821 6.9892 2.26379 6.9892H21.17C21.2156 6.9892 21.2593 6.97109 21.2916 6.93885C21.3238 6.90662 21.3419 6.8629 21.3419 6.81732V6.3017ZM2.09192 18.6767C2.09192 19.406 2.38165 20.1055 2.89738 20.6212C3.4131 21.137 4.11257 21.4267 4.84192 21.4267H18.5919C19.3213 21.4267 20.0207 21.137 20.5365 20.6212C21.0522 20.1055 21.3419 19.406 21.3419 18.6767V8.4931C21.3419 8.45891 21.3283 8.42613 21.3042 8.40195C21.28 8.37778 21.2472 8.36419 21.213 8.36419H2.22083C2.18664 8.36419 2.15385 8.37778 2.12967 8.40195C2.1055 8.42613 2.09192 8.45891 2.09192 8.4931V18.6767ZM16.8732 9.73919C17.0771 9.73919 17.2765 9.79968 17.4461 9.91299C17.6157 10.0263 17.7479 10.1874 17.8259 10.3758C17.904 10.5642 17.9244 10.7716 17.8846 10.9716C17.8448 11.1717 17.7466 11.3554 17.6024 11.4996C17.4581 11.6439 17.2744 11.7421 17.0744 11.7819C16.8743 11.8217 16.667 11.8012 16.4785 11.7232C16.2901 11.6451 16.129 11.513 16.0157 11.3434C15.9024 11.1738 15.8419 10.9744 15.8419 10.7704C15.8419 10.4969 15.9506 10.2346 16.144 10.0412C16.3374 9.84784 16.5997 9.73919 16.8732 9.73919ZM16.8732 13.1767C17.0771 13.1767 17.2765 13.2372 17.4461 13.3505C17.6157 13.4638 17.7479 13.6249 17.8259 13.8133C17.904 14.0017 17.9244 14.2091 17.8846 14.4091C17.8448 14.6092 17.7466 14.7929 17.6024 14.9371C17.4581 15.0814 17.2744 15.1796 17.0744 15.2194C16.8743 15.2592 16.667 15.2387 16.4785 15.1607C16.2901 15.0826 16.129 14.9505 16.0157 14.7809C15.9024 14.6113 15.8419 14.4119 15.8419 14.2079C15.8419 13.9344 15.9506 13.6721 16.144 13.4787C16.3374 13.2853 16.5997 13.1767 16.8732 13.1767ZM13.4357 9.73919C13.6396 9.73919 13.839 9.79968 14.0086 9.91299C14.1782 10.0263 14.3104 10.1874 14.3884 10.3758C14.4665 10.5642 14.4869 10.7716 14.4471 10.9716C14.4073 11.1717 14.3091 11.3554 14.1649 11.4996C14.0206 11.6439 13.8369 11.7421 13.6369 11.7819C13.4368 11.8217 13.2295 11.8012 13.041 11.7232C12.8526 11.6451 12.6915 11.513 12.5782 11.3434C12.4649 11.1738 12.4044 10.9744 12.4044 10.7704C12.4044 10.4969 12.5131 10.2346 12.7065 10.0412C12.8999 9.84784 13.1622 9.73919 13.4357 9.73919ZM13.4357 13.1767C13.6396 13.1767 13.839 13.2372 14.0086 13.3505C14.1782 13.4638 14.3104 13.6249 14.3884 13.8133C14.4665 14.0017 14.4869 14.2091 14.4471 14.4091C14.4073 14.6092 14.3091 14.7929 14.1649 14.9371C14.0206 15.0814 13.8369 15.1796 13.6369 15.2194C13.4368 15.2592 13.2295 15.2387 13.041 15.1607C12.8526 15.0826 12.6915 14.9505 12.5782 14.7809C12.4649 14.6113 12.4044 14.4119 12.4044 14.2079C12.4044 13.9344 12.5131 13.6721 12.7065 13.4787C12.8999 13.2853 13.1622 13.1767 13.4357 13.1767ZM13.4357 16.6142C13.6396 16.6142 13.839 16.6747 14.0086 16.788C14.1782 16.9013 14.3104 17.0624 14.3884 17.2508C14.4665 17.4392 14.4869 17.6466 14.4471 17.8466C14.4073 18.0467 14.3091 18.2304 14.1649 18.3746C14.0206 18.5189 13.8369 18.6171 13.6369 18.6569C13.4368 18.6967 13.2295 18.6762 13.041 18.5982C12.8526 18.5201 12.6915 18.388 12.5782 18.2184C12.4649 18.0488 12.4044 17.8494 12.4044 17.6454C12.4044 17.3719 12.5131 17.1096 12.7065 16.9162C12.8999 16.7228 13.1622 16.6142 13.4357 16.6142ZM9.99817 13.1767C10.2021 13.1767 10.4015 13.2372 10.5711 13.3505C10.7407 13.4638 10.8729 13.6249 10.9509 13.8133C11.029 14.0017 11.0494 14.2091 11.0096 14.4091C10.9698 14.6092 10.8716 14.7929 10.7274 14.9371C10.5831 15.0814 10.3994 15.1796 10.1994 15.2194C9.99931 15.2592 9.79196 15.2387 9.60353 15.1607C9.41509 15.0826 9.25403 14.9505 9.14072 14.7809C9.0274 14.6113 8.96692 14.4119 8.96692 14.2079C8.96692 13.9344 9.07557 13.6721 9.26896 13.4787C9.46236 13.2853 9.72466 13.1767 9.99817 13.1767ZM9.99817 16.6142C10.2021 16.6142 10.4015 16.6747 10.5711 16.788C10.7407 16.9013 10.8729 17.0624 10.9509 17.2508C11.029 17.4392 11.0494 17.6466 11.0096 17.8466C10.9698 18.0467 10.8716 18.2304 10.7274 18.3746C10.5831 18.5189 10.3994 18.6171 10.1994 18.6569C9.99931 18.6967 9.79196 18.6762 9.60353 18.5982C9.41509 18.5201 9.25403 18.388 9.14072 18.2184C9.0274 18.0488 8.96692 17.8494 8.96692 17.6454C8.96692 17.3719 9.07557 17.1096 9.26896 16.9162C9.46236 16.7228 9.72466 16.6142 9.99817 16.6142ZM6.56067 13.1767C6.76463 13.1767 6.96401 13.2372 7.1336 13.3505C7.30319 13.4638 7.43537 13.6249 7.51342 13.8133C7.59147 14.0017 7.6119 14.2091 7.5721 14.4091C7.53231 14.6092 7.4341 14.7929 7.28987 14.9371C7.14565 15.0814 6.9619 15.1796 6.76186 15.2194C6.56181 15.2592 6.35446 15.2387 6.16603 15.1607C5.97759 15.0826 5.81653 14.9505 5.70322 14.7809C5.5899 14.6113 5.52942 14.4119 5.52942 14.2079C5.52942 13.9344 5.63807 13.6721 5.83147 13.4787C6.02486 13.2853 6.28716 13.1767 6.56067 13.1767ZM6.56067 16.6142C6.76463 16.6142 6.96401 16.6747 7.1336 16.788C7.30319 16.9013 7.43537 17.0624 7.51342 17.2508C7.59147 17.4392 7.6119 17.6466 7.5721 17.8466C7.53231 18.0467 7.4341 18.2304 7.28987 18.3746C7.14565 18.5189 6.9619 18.6171 6.76186 18.6569C6.56181 18.6967 6.35446 18.6762 6.16603 18.5982C5.97759 18.5201 5.81653 18.388 5.70322 18.2184C5.5899 18.0488 5.52942 17.8494 5.52942 17.6454C5.52942 17.3719 5.63807 17.1096 5.83147 16.9162C6.02486 16.7228 6.28716 16.6142 6.56067 16.6142Z" fill="#46474B"/>
</svg>
