<svg width="23" height="22" viewBox="0 0 23 22" fill="none" xmlns="http://www.w3.org/2000/svg">
<path d="M11.75 12.0312C12.3195 12.0312 12.7812 11.5695 12.7812 11C12.7812 10.4305 12.3195 9.96875 11.75 9.96875C11.1805 9.96875 10.7188 10.4305 10.7188 11C10.7188 11.5695 11.1805 12.0312 11.75 12.0312Z" fill="#1C232D"/>
<path d="M11.75 2.0625C6.82191 2.0625 2.8125 6.07191 2.8125 11C2.8125 15.9281 6.82191 19.9375 11.75 19.9375C16.6781 19.9375 20.6875 15.9281 20.6875 11C20.6875 6.07191 16.6781 2.0625 11.75 2.0625ZM16.2647 6.93215L14.2504 11.9681C14.112 12.314 13.9049 12.6281 13.6415 12.8915C13.3781 13.1549 13.064 13.362 12.7181 13.5004L7.68215 15.5147C7.61968 15.5397 7.55125 15.5459 7.48533 15.5323C7.41942 15.5188 7.35892 15.4862 7.31134 15.4387C7.26376 15.3911 7.23119 15.3306 7.21767 15.2647C7.20415 15.1988 7.21027 15.1303 7.23527 15.0679L9.24965 10.0319C9.38796 9.68605 9.5951 9.37189 9.8585 9.1085C10.1219 8.8451 10.436 8.63796 10.7819 8.49965L15.8179 6.48527C15.8803 6.46027 15.9488 6.45415 16.0147 6.46767C16.0806 6.48119 16.1411 6.51376 16.1887 6.56134C16.2362 6.60892 16.2688 6.66942 16.2823 6.73533C16.2959 6.80125 16.2897 6.86968 16.2647 6.93215Z" fill="#1C232D"/>
</svg>
