<svg width="33" height="33" viewBox="0 0 33 33" fill="none" xmlns="http://www.w3.org/2000/svg">
<path d="M29.5474 4.2395C29.456 4.13915 29.3453 4.05836 29.2219 4.00201C29.0984 3.94566 28.9649 3.91492 28.8292 3.91165C28.6936 3.90838 28.5587 3.93264 28.4327 3.98298C28.3067 4.03331 28.1922 4.10867 28.0961 4.2045L27.323 4.97388C27.2293 5.06763 27.1766 5.19476 27.1766 5.32731C27.1766 5.45987 27.2293 5.58699 27.323 5.68075L28.0317 6.38825C28.0782 6.43493 28.1334 6.47197 28.1942 6.49724C28.255 6.52251 28.3202 6.53552 28.3861 6.53552C28.452 6.53552 28.5172 6.52251 28.578 6.49724C28.6388 6.47197 28.694 6.43493 28.7405 6.38825L29.4942 5.63825C29.8755 5.25763 29.9111 4.63763 29.5474 4.2395ZM25.7599 6.53638L14.4774 17.7989C14.4089 17.867 14.3592 17.9516 14.333 18.0445L13.8111 19.5989C13.7986 19.6411 13.7977 19.6858 13.8085 19.7285C13.8194 19.7711 13.8415 19.81 13.8726 19.8411C13.9037 19.8722 13.9426 19.8944 13.9853 19.9052C14.0279 19.916 14.0727 19.9151 14.1149 19.9026L15.668 19.3808C15.7609 19.3545 15.8455 19.3048 15.9136 19.2364L27.1761 7.95263C27.2803 7.84731 27.3387 7.70515 27.3387 7.557C27.3387 7.40885 27.2803 7.26669 27.1761 7.16138L26.5542 6.53638C26.4488 6.43123 26.3059 6.37218 26.157 6.37218C26.0081 6.37218 25.8653 6.43123 25.7599 6.53638V6.53638Z" fill="#46474B"/>
<path d="M24.9474 13.0151L17.3293 20.6483C17.0348 20.9434 16.673 21.1624 16.2749 21.2864L14.6561 21.8283C14.272 21.9367 13.8658 21.9408 13.4796 21.8401C13.0933 21.7394 12.7408 21.5375 12.4586 21.2552C12.1763 20.9729 11.9744 20.6205 11.8737 20.2342C11.7729 19.8479 11.777 19.4418 11.8855 19.0576L12.4274 17.4389C12.551 17.0409 12.7696 16.6791 13.0643 16.3845L20.6974 8.76513C20.7674 8.69524 20.815 8.60617 20.8344 8.50918C20.8537 8.4122 20.8439 8.31166 20.8061 8.22027C20.7683 8.12888 20.7042 8.05076 20.622 7.99578C20.5398 7.94079 20.4432 7.91142 20.3443 7.91138H7.30115C6.37289 7.91138 5.48265 8.28013 4.82627 8.9365C4.1699 9.59288 3.80115 10.4831 3.80115 11.4114V26.4114C3.80115 27.3396 4.1699 28.2299 4.82627 28.8863C5.48265 29.5426 6.37289 29.9114 7.30115 29.9114H22.3011C23.2294 29.9114 24.1196 29.5426 24.776 28.8863C25.4324 28.2299 25.8011 27.3396 25.8011 26.4114V13.3683C25.8011 13.2694 25.7717 13.1727 25.7167 13.0905C25.6618 13.0083 25.5836 12.9442 25.4923 12.9064C25.4009 12.8686 25.3003 12.8588 25.2033 12.8781C25.1064 12.8975 25.0173 12.9452 24.9474 13.0151Z" fill="#46474B"/>
</svg>
