<svg width="23" height="22" viewBox="0 0 23 22" fill="none" xmlns="http://www.w3.org/2000/svg">
<path d="M18.9688 3.4375H4.53125C3.89328 3.43818 3.28164 3.69192 2.83053 4.14303C2.37942 4.59414 2.12568 5.20578 2.125 5.84375V16.1562C2.12568 16.7942 2.37942 17.4059 2.83053 17.857C3.28164 18.3081 3.89328 18.5618 4.53125 18.5625H18.9688C19.6067 18.5618 20.2184 18.3081 20.6695 17.857C21.1206 17.4059 21.3743 16.7942 21.375 16.1562V5.84375C21.3743 5.20578 21.1206 4.59414 20.6695 4.14303C20.2184 3.69192 19.6067 3.43818 18.9688 3.4375ZM18.3595 7.4177L12.172 12.2302C12.0513 12.324 11.9028 12.3749 11.75 12.3749C11.5972 12.3749 11.4487 12.324 11.328 12.2302L5.14055 7.4177C5.06785 7.3628 5.00679 7.294 4.96091 7.21529C4.91503 7.13659 4.88525 7.04956 4.8733 6.95925C4.86135 6.86893 4.86747 6.77715 4.8913 6.68922C4.91513 6.6013 4.9562 6.51898 5.01211 6.44707C5.06803 6.37515 5.13768 6.31506 5.21702 6.2703C5.29636 6.22553 5.38381 6.19698 5.47428 6.1863C5.56475 6.17562 5.65644 6.18303 5.74402 6.2081C5.8316 6.23316 5.91333 6.27538 5.98445 6.3323L11.75 10.8165L17.5155 6.3323C17.6597 6.22343 17.8409 6.17568 18.02 6.19938C18.1991 6.22308 18.3617 6.31632 18.4726 6.45894C18.5835 6.60157 18.6338 6.78211 18.6126 6.96152C18.5914 7.14094 18.5005 7.30481 18.3595 7.4177Z" fill="#1C232D"/>
</svg>
