<svg width="23" height="23" viewBox="0 0 23 23" fill="none" xmlns="http://www.w3.org/2000/svg">
<path d="M19.6193 5.61414H18.5958C18.5948 5.61414 18.5938 5.61454 18.5931 5.61527C18.5923 5.61599 18.5919 5.61698 18.5919 5.618V18.6766C18.5919 19.0413 18.7368 19.391 18.9946 19.6489C19.2525 19.9068 19.6022 20.0516 19.9669 20.0516C20.3316 20.0516 20.6813 19.9068 20.9392 19.6489C21.1971 19.391 21.3419 19.0413 21.3419 18.6766V7.33675C21.3419 6.87989 21.1604 6.44173 20.8374 6.11868C20.5143 5.79563 20.0762 5.61414 19.6193 5.61414Z" fill="#46474B"/>
<path d="M17.2169 18.6766V3.89539C17.2169 3.66968 17.1725 3.44618 17.0861 3.23765C16.9997 3.02912 16.8731 2.83965 16.7135 2.68005C16.5539 2.52045 16.3644 2.39384 16.1559 2.30747C15.9474 2.22109 15.7239 2.17664 15.4982 2.17664H3.81067C3.35483 2.17664 2.91766 2.35772 2.59533 2.68005C2.273 3.00237 2.09192 3.43954 2.09192 3.89539V19.0204C2.09192 19.6586 2.34543 20.2706 2.79669 20.7219C3.24795 21.1731 3.85999 21.4266 4.49817 21.4266H19.23C19.2365 21.4267 19.243 21.4255 19.249 21.423C19.255 21.4205 19.2605 21.4169 19.2651 21.4123C19.2697 21.4077 19.2733 21.4022 19.2758 21.3962C19.2782 21.3902 19.2795 21.3837 19.2794 21.3772C19.2794 21.3664 19.2758 21.3559 19.2692 21.3474C19.2626 21.3388 19.2533 21.3327 19.2429 21.33C18.6613 21.1704 18.1482 20.8245 17.7822 20.3451C17.4162 19.8658 17.2176 19.2797 17.2169 18.6766ZM4.84192 6.30164C4.84192 6.1193 4.91435 5.94443 5.04328 5.8155C5.17221 5.68657 5.34708 5.61414 5.52942 5.61414H8.27942C8.46176 5.61414 8.63662 5.68657 8.76555 5.8155C8.89449 5.94443 8.96692 6.1193 8.96692 6.30164V9.05164C8.96692 9.23397 8.89449 9.40884 8.76555 9.53777C8.63662 9.6667 8.46176 9.73914 8.27942 9.73914H5.52942C5.34708 9.73914 5.17221 9.6667 5.04328 9.53777C4.91435 9.40884 4.84192 9.23397 4.84192 9.05164V6.30164ZM13.7794 17.9891H5.54875C5.17879 17.9891 4.86125 17.7047 4.84278 17.3347C4.8383 17.2418 4.85274 17.1489 4.88523 17.0617C4.91771 16.9744 4.96756 16.8947 5.03176 16.8274C5.09596 16.76 5.17318 16.7064 5.25872 16.6697C5.34426 16.633 5.43635 16.6141 5.52942 16.6141H13.7601C14.13 16.6141 14.4476 16.8986 14.4661 17.2685C14.4705 17.3615 14.4561 17.4544 14.4236 17.5416C14.3911 17.6288 14.3413 17.7085 14.2771 17.7759C14.2129 17.8433 14.1357 17.8969 14.0501 17.9336C13.9646 17.9702 13.8725 17.9891 13.7794 17.9891ZM13.7794 15.2391H5.54875C5.17879 15.2391 4.86125 14.9547 4.84278 14.5847C4.8383 14.4918 4.85274 14.3989 4.88523 14.3117C4.91771 14.2244 4.96756 14.1447 5.03176 14.0774C5.09596 14.01 5.17318 13.9564 5.25872 13.9197C5.34426 13.883 5.43635 13.8641 5.52942 13.8641H13.7601C14.13 13.8641 14.4476 14.1486 14.4661 14.5185C14.4705 14.6115 14.4561 14.7044 14.4236 14.7916C14.3911 14.8788 14.3413 14.9585 14.2771 15.0259C14.2129 15.0933 14.1357 15.1469 14.0501 15.1836C13.9646 15.2202 13.8725 15.2391 13.7794 15.2391ZM13.7794 12.4891H5.54875C5.17879 12.4891 4.86125 12.2047 4.84278 11.8347C4.8383 11.7418 4.85274 11.6489 4.88523 11.5617C4.91771 11.4744 4.96756 11.3947 5.03176 11.3274C5.09596 11.26 5.17318 11.2064 5.25872 11.1697C5.34426 11.133 5.43635 11.1141 5.52942 11.1141H13.7601C14.13 11.1141 14.4476 11.3986 14.4661 11.7685C14.4705 11.8615 14.4561 11.9544 14.4236 12.0416C14.3911 12.1288 14.3413 12.2085 14.2771 12.2759C14.2129 12.3433 14.1357 12.3969 14.0501 12.4336C13.9646 12.4702 13.8725 12.4891 13.7794 12.4891ZM13.7794 9.73914H11.0488C10.6788 9.73914 10.3613 9.45468 10.3428 9.08472C10.3383 8.99177 10.3527 8.89887 10.3852 8.81166C10.4177 8.72445 10.4676 8.64474 10.5318 8.57736C10.596 8.50999 10.6732 8.45635 10.7587 8.4197C10.8443 8.38305 10.9364 8.36414 11.0294 8.36414H13.7601C14.13 8.36414 14.4476 8.64859 14.4661 9.01855C14.4705 9.11151 14.4561 9.2044 14.4236 9.29162C14.3911 9.37883 14.3413 9.45853 14.2771 9.52591C14.2129 9.59328 14.1357 9.64692 14.0501 9.68357C13.9646 9.72022 13.8725 9.73913 13.7794 9.73914ZM13.7794 6.98914H11.0488C10.6788 6.98914 10.3613 6.70468 10.3428 6.33472C10.3383 6.24177 10.3527 6.14887 10.3852 6.06166C10.4177 5.97445 10.4676 5.89474 10.5318 5.82736C10.596 5.75999 10.6732 5.70635 10.7587 5.6697C10.8443 5.63305 10.9364 5.61414 11.0294 5.61414H13.7601C14.13 5.61414 14.4476 5.89859 14.4661 6.26855C14.4705 6.36151 14.4561 6.4544 14.4236 6.54162C14.3911 6.62883 14.3413 6.70853 14.2771 6.77591C14.2129 6.84328 14.1357 6.89692 14.0501 6.93357C13.9646 6.97022 13.8725 6.98913 13.7794 6.98914Z" fill="#46474B"/>
</svg>
