<svg width="23" height="22" viewBox="0 0 23 22" fill="none" xmlns="http://www.w3.org/2000/svg">
<g clip-path="url(#clip0_11_41)">
<path d="M16.303 1.5999C15.2739 0.568166 13.8365 0 12.25 0C10.655 0 9.21292 0.564729 8.18857 1.59008C7.15312 2.62673 6.64862 4.0356 6.76707 5.55693C7.00188 8.55834 9.46147 10.9999 12.25 10.9999C15.0385 10.9999 17.4939 8.55883 17.7324 5.55791C17.8524 4.05033 17.3448 2.6444 16.303 1.5999ZM21.5574 21.9999H2.94256C2.69891 22.0028 2.45762 21.9553 2.23624 21.8607C2.01486 21.7662 1.81896 21.627 1.66279 21.4533C1.31905 21.0718 1.1805 20.5507 1.28309 20.0238C1.72942 17.7246 3.12237 15.7933 5.31173 14.4374C7.25677 13.2338 9.7206 12.5714 12.25 12.5714C14.7794 12.5714 17.2432 13.2343 19.1883 14.4374C21.3776 15.7928 22.7706 17.7241 23.2169 20.0233C23.3195 20.5502 23.1809 21.0713 22.8372 21.4528C22.6811 21.6266 22.4852 21.7659 22.2638 21.8605C22.0424 21.9551 21.8011 22.0028 21.5574 21.9999Z" fill="#1C232D"/>
</g>
<defs>
<clipPath id="clip0_11_41">
<rect width="22" height="22" fill="white" transform="translate(0.75)"/>
</clipPath>
</defs>
</svg>
