<svg width="23" height="22" viewBox="0 0 23 22" fill="none" xmlns="http://www.w3.org/2000/svg">
<g clip-path="url(#clip0_11_43)">
<path d="M15.1875 0H8.3125C7.58315 0 6.88368 0.289731 6.36796 0.805456C5.85223 1.32118 5.5625 2.02065 5.5625 2.75V19.25C5.5625 19.9793 5.85223 20.6788 6.36796 21.1945C6.88368 21.7103 7.58315 22 8.3125 22H15.1875C15.9168 22 16.6163 21.7103 17.132 21.1945C17.6478 20.6788 17.9375 19.9793 17.9375 19.25V2.75C17.9375 2.02065 17.6478 1.32118 17.132 0.805456C16.6163 0.289731 15.9168 0 15.1875 0V0ZM16.5625 19.25C16.5625 19.6147 16.4176 19.9644 16.1598 20.2223C15.9019 20.4801 15.5522 20.625 15.1875 20.625H8.3125C7.94783 20.625 7.59809 20.4801 7.34023 20.2223C7.08237 19.9644 6.9375 19.6147 6.9375 19.25V2.75C6.9375 2.38533 7.08237 2.03559 7.34023 1.77773C7.59809 1.51987 7.94783 1.375 8.3125 1.375H8.8002C8.86668 1.37476 8.93179 1.39395 8.98751 1.43021C9.04324 1.46647 9.08716 1.51822 9.11387 1.5791C9.22062 1.82486 9.39686 2.03406 9.62091 2.18101C9.84496 2.32796 10.1071 2.40625 10.375 2.40625H13.125C13.3929 2.40625 13.655 2.32796 13.8791 2.18101C14.1031 2.03406 14.2794 1.82486 14.3861 1.5791C14.4128 1.51822 14.4568 1.46647 14.5125 1.43021C14.5682 1.39395 14.6333 1.37476 14.6998 1.375H15.1875C15.5522 1.375 15.9019 1.51987 16.1598 1.77773C16.4176 2.03559 16.5625 2.38533 16.5625 2.75V19.25Z" fill="#1C232D"/>
<path d="M15.1875 2.06251C15.1083 2.06203 15.0301 2.07998 14.959 2.11496C14.8879 2.14994 14.8259 2.20097 14.778 2.26403C14.5861 2.52146 14.3367 2.73053 14.0497 2.87458C13.7627 3.01862 13.4461 3.09368 13.125 3.09376H10.375C10.0539 3.09368 9.73725 3.01862 9.45027 2.87458C9.1633 2.73053 8.91392 2.52146 8.72199 2.26403C8.67405 2.20097 8.61209 2.14994 8.54102 2.11496C8.46995 2.07998 8.39171 2.06203 8.3125 2.06251C8.13016 2.06251 7.9553 2.13494 7.82636 2.26387C7.69743 2.3928 7.625 2.56767 7.625 2.75001V19.25C7.625 19.4323 7.69743 19.6072 7.82636 19.7361C7.9553 19.8651 8.13016 19.9375 8.3125 19.9375H15.1875C15.3698 19.9375 15.5447 19.8651 15.6736 19.7361C15.8026 19.6072 15.875 19.4323 15.875 19.25V2.75001C15.875 2.56767 15.8026 2.3928 15.6736 2.26387C15.5447 2.13494 15.3698 2.06251 15.1875 2.06251Z" fill="#1C232D"/>
<path d="M15.1875 0H8.3125C7.58315 0 6.88368 0.289731 6.36796 0.805456C5.85223 1.32118 5.5625 2.02065 5.5625 2.75V19.25C5.5625 19.9793 5.85223 20.6788 6.36796 21.1945C6.88368 21.7103 7.58315 22 8.3125 22H15.1875C15.9168 22 16.6163 21.7103 17.132 21.1945C17.6478 20.6788 17.9375 19.9793 17.9375 19.25V2.75C17.9375 2.02065 17.6478 1.32118 17.132 0.805456C16.6163 0.289731 15.9168 0 15.1875 0V0ZM16.5625 19.25C16.5625 19.6147 16.4176 19.9644 16.1598 20.2223C15.9019 20.4801 15.5522 20.625 15.1875 20.625H8.3125C7.94783 20.625 7.59809 20.4801 7.34023 20.2223C7.08237 19.9644 6.9375 19.6147 6.9375 19.25V2.75C6.9375 2.38533 7.08237 2.03559 7.34023 1.77773C7.59809 1.51987 7.94783 1.375 8.3125 1.375H8.8002C8.86668 1.37476 8.93179 1.39395 8.98751 1.43021C9.04324 1.46647 9.08716 1.51822 9.11387 1.5791C9.22062 1.82486 9.39686 2.03406 9.62091 2.18101C9.84496 2.32796 10.1071 2.40625 10.375 2.40625H13.125C13.3929 2.40625 13.655 2.32796 13.8791 2.18101C14.1031 2.03406 14.2794 1.82486 14.3861 1.5791C14.4128 1.51822 14.4568 1.46647 14.5125 1.43021C14.5682 1.39395 14.6333 1.37476 14.6998 1.375H15.1875C15.5522 1.375 15.9019 1.51987 16.1598 1.77773C16.4176 2.03559 16.5625 2.38533 16.5625 2.75V19.25Z" fill="#1C232D"/>
</g>
<defs>
<clipPath id="clip0_11_43">
<rect width="22" height="22" fill="white" transform="translate(0.75)"/>
</clipPath>
</defs>
</svg>
