<svg width="23" height="23" viewBox="0 0 23 23" fill="none" xmlns="http://www.w3.org/2000/svg">
<path d="M4.82043 5.27033H18.5704C18.7311 5.27026 18.8915 5.28045 19.0508 5.30084C18.9968 4.92176 18.8666 4.55754 18.668 4.23014C18.4695 3.90274 18.2067 3.61895 17.8954 3.39586C17.5842 3.17278 17.2311 3.01504 16.8572 2.93213C16.4834 2.84923 16.0967 2.84289 15.7203 2.9135L4.41223 4.84408H4.39934C3.68953 4.97982 3.05831 5.38142 2.63461 5.96685C3.27296 5.51281 4.03709 5.26932 4.82043 5.27033ZM18.5704 6.30158H4.82043C4.09133 6.30238 3.39232 6.59236 2.87677 7.10792C2.36122 7.62347 2.07123 8.32248 2.07043 9.05158V17.3016C2.07123 18.0307 2.36122 18.7297 2.87677 19.2452C3.39232 19.7608 4.09133 20.0508 4.82043 20.0516H18.5704C19.2995 20.0508 19.9985 19.7608 20.5141 19.2452C21.0297 18.7297 21.3196 18.0307 21.3204 17.3016V9.05158C21.3196 8.32248 21.0297 7.62347 20.5141 7.10792C19.9985 6.59236 19.2995 6.30238 18.5704 6.30158ZM16.5294 14.5516C16.2575 14.5516 15.9916 14.4709 15.7655 14.3199C15.5394 14.1688 15.3632 13.954 15.2591 13.7028C15.155 13.4515 15.1278 13.1751 15.1808 12.9083C15.2339 12.6416 15.3649 12.3966 15.5571 12.2043C15.7494 12.012 15.9944 11.8811 16.2612 11.828C16.5279 11.7749 16.8044 11.8022 17.0556 11.9062C17.3069 12.0103 17.5216 12.1866 17.6727 12.4127C17.8238 12.6388 17.9044 12.9046 17.9044 13.1766C17.9044 13.5413 17.7596 13.891 17.5017 14.1489C17.2438 14.4067 16.8941 14.5516 16.5294 14.5516Z" fill="#46474B"/>
<path d="M2.09192 11.952V7.67664C2.09192 6.7455 2.60754 5.18445 4.39719 4.84628C5.91614 4.5614 7.42004 4.5614 7.42004 4.5614C7.42004 4.5614 8.40833 5.2489 7.59192 5.2489C6.77551 5.2489 6.797 6.30164 7.59192 6.30164C8.38684 6.30164 7.59192 7.3114 7.59192 7.3114L4.39075 10.9423L2.09192 11.952Z" fill="#46474B"/>
</svg>
